<mxfile host="app.diagrams.net" modified="2024-01-25T13:42:41.793Z" agent="Mozilla/5.0 (Windows NT 10.0; Win64; x64) AppleWebKit/537.36 (KHTML, like Gecko) Chrome/120.0.0.0 Safari/537.36" etag="rmNlbUOkk6naaFfcJM0j" version="23.0.1" type="device">
  <diagram id="2-l1NJynXQIDxvilYgY3" name="Page-1">
    <mxGraphModel dx="2074" dy="1140" grid="1" gridSize="10" guides="1" tooltips="1" connect="1" arrows="1" fold="1" page="1" pageScale="1" pageWidth="827" pageHeight="1169" math="0" shadow="0">
      <root>
        <mxCell id="0" />
        <mxCell id="1" parent="0" />
        <mxCell id="LGmv6He7c4hTNf7auWnH-17" value="" style="endArrow=classic;html=1;rounded=0;strokeWidth=1.5;" parent="1" edge="1">
          <mxGeometry width="50" height="50" relative="1" as="geometry">
            <mxPoint x="50" y="220" as="sourcePoint" />
            <mxPoint x="410" y="220" as="targetPoint" />
          </mxGeometry>
        </mxCell>
        <mxCell id="LGmv6He7c4hTNf7auWnH-18" value="" style="endArrow=none;html=1;rounded=0;fontStyle=1;strokeWidth=2;" parent="1" edge="1">
          <mxGeometry width="50" height="50" relative="1" as="geometry">
            <mxPoint x="50" y="190" as="sourcePoint" />
            <mxPoint x="370" y="190" as="targetPoint" />
          </mxGeometry>
        </mxCell>
        <mxCell id="LGmv6He7c4hTNf7auWnH-19" value="" style="endArrow=none;html=1;rounded=0;" parent="1" edge="1">
          <mxGeometry width="50" height="50" relative="1" as="geometry">
            <mxPoint x="50" y="160" as="sourcePoint" />
            <mxPoint x="150" y="160" as="targetPoint" />
          </mxGeometry>
        </mxCell>
        <mxCell id="LGmv6He7c4hTNf7auWnH-22" value="C" style="text;html=1;strokeColor=none;fillColor=none;align=center;verticalAlign=middle;whiteSpace=wrap;rounded=0;fontStyle=1" parent="1" vertex="1">
          <mxGeometry y="175" width="60" height="30" as="geometry" />
        </mxCell>
        <mxCell id="LGmv6He7c4hTNf7auWnH-23" value="A1" style="text;html=1;strokeColor=none;fillColor=none;align=center;verticalAlign=middle;whiteSpace=wrap;rounded=0;" parent="1" vertex="1">
          <mxGeometry y="145" width="60" height="30" as="geometry" />
        </mxCell>
        <mxCell id="LGmv6He7c4hTNf7auWnH-24" value="A2" style="text;html=1;strokeColor=none;fillColor=none;align=center;verticalAlign=middle;whiteSpace=wrap;rounded=0;" parent="1" vertex="1">
          <mxGeometry y="115" width="60" height="30" as="geometry" />
        </mxCell>
        <mxCell id="LGmv6He7c4hTNf7auWnH-25" value="A3" style="text;html=1;strokeColor=none;fillColor=none;align=center;verticalAlign=middle;whiteSpace=wrap;rounded=0;" parent="1" vertex="1">
          <mxGeometry y="85" width="60" height="30" as="geometry" />
        </mxCell>
        <mxCell id="LGmv6He7c4hTNf7auWnH-28" value="" style="endArrow=none;html=1;rounded=0;" parent="1" edge="1">
          <mxGeometry width="50" height="50" relative="1" as="geometry">
            <mxPoint x="150" y="130" as="sourcePoint" />
            <mxPoint x="250" y="130" as="targetPoint" />
          </mxGeometry>
        </mxCell>
        <mxCell id="LGmv6He7c4hTNf7auWnH-29" value="" style="endArrow=none;html=1;rounded=0;" parent="1" edge="1">
          <mxGeometry width="50" height="50" relative="1" as="geometry">
            <mxPoint x="250" y="100" as="sourcePoint" />
            <mxPoint x="350" y="100" as="targetPoint" />
          </mxGeometry>
        </mxCell>
        <mxCell id="LGmv6He7c4hTNf7auWnH-30" value="" style="endArrow=classic;html=1;rounded=0;strokeWidth=1.5;" parent="1" edge="1">
          <mxGeometry width="50" height="50" relative="1" as="geometry">
            <mxPoint x="50" y="545" as="sourcePoint" />
            <mxPoint x="410" y="545" as="targetPoint" />
          </mxGeometry>
        </mxCell>
        <mxCell id="LGmv6He7c4hTNf7auWnH-31" value="" style="endArrow=none;html=1;rounded=0;fontStyle=1;strokeWidth=2;" parent="1" edge="1">
          <mxGeometry width="50" height="50" relative="1" as="geometry">
            <mxPoint x="50" y="515" as="sourcePoint" />
            <mxPoint x="370" y="515" as="targetPoint" />
          </mxGeometry>
        </mxCell>
        <mxCell id="LGmv6He7c4hTNf7auWnH-35" value="C" style="text;html=1;strokeColor=none;fillColor=none;align=center;verticalAlign=middle;whiteSpace=wrap;rounded=0;fontStyle=1" parent="1" vertex="1">
          <mxGeometry y="500" width="60" height="30" as="geometry" />
        </mxCell>
        <mxCell id="LGmv6He7c4hTNf7auWnH-36" value="A1" style="text;html=1;strokeColor=none;fillColor=none;align=center;verticalAlign=middle;whiteSpace=wrap;rounded=0;" parent="1" vertex="1">
          <mxGeometry y="470" width="60" height="30" as="geometry" />
        </mxCell>
        <mxCell id="LGmv6He7c4hTNf7auWnH-37" value="A2" style="text;html=1;strokeColor=none;fillColor=none;align=center;verticalAlign=middle;whiteSpace=wrap;rounded=0;" parent="1" vertex="1">
          <mxGeometry y="440" width="60" height="30" as="geometry" />
        </mxCell>
        <mxCell id="LGmv6He7c4hTNf7auWnH-38" value="A3" style="text;html=1;strokeColor=none;fillColor=none;align=center;verticalAlign=middle;whiteSpace=wrap;rounded=0;" parent="1" vertex="1">
          <mxGeometry y="410" width="60" height="30" as="geometry" />
        </mxCell>
        <mxCell id="LGmv6He7c4hTNf7auWnH-39" value="" style="endArrow=none;html=1;rounded=0;" parent="1" edge="1">
          <mxGeometry width="50" height="50" relative="1" as="geometry">
            <mxPoint x="210" y="395" as="sourcePoint" />
            <mxPoint x="330" y="395" as="targetPoint" />
          </mxGeometry>
        </mxCell>
        <mxCell id="LGmv6He7c4hTNf7auWnH-40" value="" style="endArrow=none;html=1;rounded=0;" parent="1" edge="1">
          <mxGeometry width="50" height="50" relative="1" as="geometry">
            <mxPoint x="50" y="485" as="sourcePoint" />
            <mxPoint x="170" y="485" as="targetPoint" />
          </mxGeometry>
        </mxCell>
        <mxCell id="LGmv6He7c4hTNf7auWnH-41" value="" style="endArrow=none;html=1;rounded=0;" parent="1" edge="1">
          <mxGeometry width="50" height="50" relative="1" as="geometry">
            <mxPoint x="130" y="454.31" as="sourcePoint" />
            <mxPoint x="250" y="454.31" as="targetPoint" />
          </mxGeometry>
        </mxCell>
        <mxCell id="LGmv6He7c4hTNf7auWnH-42" value="" style="endArrow=none;html=1;rounded=0;" parent="1" edge="1">
          <mxGeometry width="50" height="50" relative="1" as="geometry">
            <mxPoint x="150.0000000000001" y="425.00000000000006" as="sourcePoint" />
            <mxPoint x="270" y="425.00000000000006" as="targetPoint" />
          </mxGeometry>
        </mxCell>
        <mxCell id="LGmv6He7c4hTNf7auWnH-43" value="A4" style="text;html=1;strokeColor=none;fillColor=none;align=center;verticalAlign=middle;whiteSpace=wrap;rounded=0;" parent="1" vertex="1">
          <mxGeometry y="380" width="60" height="30" as="geometry" />
        </mxCell>
        <mxCell id="LGmv6He7c4hTNf7auWnH-45" value="" style="endArrow=none;html=1;rounded=0;fontStyle=1;strokeWidth=2;" parent="1" edge="1">
          <mxGeometry width="50" height="50" relative="1" as="geometry">
            <mxPoint x="50" y="850" as="sourcePoint" />
            <mxPoint x="330" y="850" as="targetPoint" />
          </mxGeometry>
        </mxCell>
        <mxCell id="LGmv6He7c4hTNf7auWnH-46" value="C" style="text;html=1;strokeColor=none;fillColor=none;align=center;verticalAlign=middle;whiteSpace=wrap;rounded=0;fontStyle=1" parent="1" vertex="1">
          <mxGeometry y="835" width="60" height="30" as="geometry" />
        </mxCell>
        <mxCell id="LGmv6He7c4hTNf7auWnH-50" value="" style="endArrow=none;html=1;rounded=0;" parent="1" edge="1">
          <mxGeometry width="50" height="50" relative="1" as="geometry">
            <mxPoint x="110" y="760" as="sourcePoint" />
            <mxPoint x="230" y="760" as="targetPoint" />
          </mxGeometry>
        </mxCell>
        <mxCell id="LGmv6He7c4hTNf7auWnH-51" value="" style="endArrow=none;html=1;rounded=0;" parent="1" edge="1">
          <mxGeometry width="50" height="50" relative="1" as="geometry">
            <mxPoint x="50" y="820" as="sourcePoint" />
            <mxPoint x="170" y="820" as="targetPoint" />
          </mxGeometry>
        </mxCell>
        <mxCell id="LGmv6He7c4hTNf7auWnH-52" value="" style="endArrow=none;html=1;rounded=0;" parent="1" edge="1">
          <mxGeometry width="50" height="50" relative="1" as="geometry">
            <mxPoint x="70" y="800" as="sourcePoint" />
            <mxPoint x="190" y="800" as="targetPoint" />
          </mxGeometry>
        </mxCell>
        <mxCell id="LGmv6He7c4hTNf7auWnH-53" value="" style="endArrow=none;html=1;rounded=0;" parent="1" edge="1">
          <mxGeometry width="50" height="50" relative="1" as="geometry">
            <mxPoint x="90" y="780" as="sourcePoint" />
            <mxPoint x="210" y="780" as="targetPoint" />
          </mxGeometry>
        </mxCell>
        <mxCell id="LGmv6He7c4hTNf7auWnH-55" value="" style="endArrow=none;html=1;rounded=0;" parent="1" edge="1">
          <mxGeometry width="50" height="50" relative="1" as="geometry">
            <mxPoint x="130" y="740" as="sourcePoint" />
            <mxPoint x="250" y="740" as="targetPoint" />
          </mxGeometry>
        </mxCell>
        <mxCell id="LGmv6He7c4hTNf7auWnH-56" value="" style="endArrow=none;html=1;rounded=0;" parent="1" edge="1">
          <mxGeometry width="50" height="50" relative="1" as="geometry">
            <mxPoint x="150" y="720" as="sourcePoint" />
            <mxPoint x="270" y="720" as="targetPoint" />
          </mxGeometry>
        </mxCell>
        <mxCell id="LGmv6He7c4hTNf7auWnH-57" value="" style="endArrow=none;html=1;rounded=0;" parent="1" edge="1">
          <mxGeometry width="50" height="50" relative="1" as="geometry">
            <mxPoint x="180" y="700" as="sourcePoint" />
            <mxPoint x="300" y="700" as="targetPoint" />
          </mxGeometry>
        </mxCell>
        <mxCell id="LGmv6He7c4hTNf7auWnH-58" value="" style="endArrow=none;html=1;rounded=0;" parent="1" edge="1">
          <mxGeometry width="50" height="50" relative="1" as="geometry">
            <mxPoint x="200" y="680" as="sourcePoint" />
            <mxPoint x="320" y="680" as="targetPoint" />
          </mxGeometry>
        </mxCell>
        <mxCell id="LGmv6He7c4hTNf7auWnH-61" value="" style="endArrow=none;dashed=1;html=1;rounded=0;fillColor=#f5f5f5;strokeColor=#D92B09;" parent="1" edge="1">
          <mxGeometry width="50" height="50" relative="1" as="geometry">
            <mxPoint x="150" y="240" as="sourcePoint" />
            <mxPoint x="150" y="60" as="targetPoint" />
          </mxGeometry>
        </mxCell>
        <mxCell id="LGmv6He7c4hTNf7auWnH-62" value="" style="endArrow=none;dashed=1;html=1;rounded=0;fillColor=#f5f5f5;strokeColor=#D92B09;" parent="1" edge="1">
          <mxGeometry width="50" height="50" relative="1" as="geometry">
            <mxPoint x="250" y="240" as="sourcePoint" />
            <mxPoint x="250" y="60" as="targetPoint" />
          </mxGeometry>
        </mxCell>
        <mxCell id="LGmv6He7c4hTNf7auWnH-63" value="" style="endArrow=none;dashed=1;html=1;rounded=0;fillColor=#f5f5f5;strokeColor=#D92B09;" parent="1" edge="1">
          <mxGeometry width="50" height="50" relative="1" as="geometry">
            <mxPoint x="130" y="545" as="sourcePoint" />
            <mxPoint x="130" y="365" as="targetPoint" />
          </mxGeometry>
        </mxCell>
        <mxCell id="LGmv6He7c4hTNf7auWnH-65" value="&lt;font style=&quot;font-size: 13px;&quot;&gt;Entry times at&amp;nbsp;&lt;i&gt;d&lt;sub&gt;k&amp;nbsp;&lt;/sub&gt;&lt;/i&gt;&lt;i&gt;= d·(k-1)&lt;/i&gt;&lt;i&gt;, &lt;/i&gt;for &lt;i&gt;k&amp;nbsp;&lt;/i&gt;≥ 1 and&amp;nbsp;&lt;i&gt;0 &amp;lt; d&amp;nbsp;&lt;/i&gt;&lt;span style=&quot;font-family: &amp;quot;calibri&amp;quot;&quot;&gt;≤&amp;nbsp;&lt;/span&gt;&lt;i&gt;2n&lt;/i&gt;&lt;/font&gt;" style="text;html=1;strokeColor=none;fillColor=none;align=left;verticalAlign=middle;whiteSpace=wrap;rounded=0;" parent="1" vertex="1">
          <mxGeometry x="65" y="20" width="360" height="30" as="geometry" />
        </mxCell>
        <mxCell id="LGmv6He7c4hTNf7auWnH-66" value="&lt;div&gt;&lt;/div&gt;&lt;span style=&quot;border-color: var(--border-color); font-size: 13px;&quot;&gt;Entry times at&lt;i&gt; d&lt;/i&gt;&lt;sub style=&quot;font-style: italic; border-color: var(--border-color);&quot;&gt;1&lt;/sub&gt;&lt;i&gt;&amp;nbsp;= 0,&amp;nbsp;&lt;/i&gt;&lt;i style=&quot;font-style: italic; background-color: initial;&quot;&gt;d&lt;span style=&quot;&quot;&gt;&lt;sub&gt;2&lt;/sub&gt;&amp;nbsp;&lt;/span&gt;= 300,&amp;nbsp;&lt;/i&gt;&lt;i style=&quot;font-style: italic; background-color: initial;&quot;&gt;d&lt;span style=&quot;&quot;&gt;&lt;sub&gt;4&lt;/sub&gt;&amp;nbsp;&lt;/span&gt;= 800,&amp;nbsp;&lt;/i&gt;&lt;span style=&quot;background-color: initial;&quot;&gt;and&amp;nbsp;&lt;/span&gt;&lt;i style=&quot;font-style: italic; border-color: var(--border-color);&quot;&gt;&lt;i style=&quot;border-color: var(--border-color); background-color: initial;&quot;&gt;d&lt;sub style=&quot;border-color: var(--border-color);&quot;&gt;2&amp;nbsp;&lt;/sub&gt;&lt;/i&gt;&lt;/i&gt;&lt;span style=&quot;font-style: italic; background-color: initial; font-family: calibri;&quot;&gt;≤&amp;nbsp;&lt;/span&gt;&lt;i style=&quot;font-style: italic; background-color: initial;&quot;&gt;d&lt;sub&gt;3&amp;nbsp;&lt;/sub&gt;&lt;/i&gt;&lt;span style=&quot;font-style: italic; background-color: initial; font-family: calibri;&quot;&gt;≤&amp;nbsp;&lt;/span&gt;&lt;i style=&quot;font-style: italic; border-color: var(--border-color);&quot;&gt;&lt;i style=&quot;border-color: var(--border-color); background-color: initial;&quot;&gt;d&lt;sub style=&quot;border-color: var(--border-color);&quot;&gt;4&amp;nbsp;&lt;/sub&gt;&lt;/i&gt;&lt;/i&gt;&lt;br&gt;&lt;/span&gt;" style="text;html=1;strokeColor=none;fillColor=none;align=left;verticalAlign=middle;whiteSpace=wrap;rounded=0;" parent="1" vertex="1">
          <mxGeometry x="65" y="305" width="360" height="60" as="geometry" />
        </mxCell>
        <mxCell id="LGmv6He7c4hTNf7auWnH-67" value="&lt;font style=&quot;font-size: 13px;&quot;&gt;Entry times at&amp;nbsp;&lt;i style=&quot;border-color: var(--border-color);&quot;&gt;d&lt;sub style=&quot;border-color: var(--border-color);&quot;&gt;k&amp;nbsp;&lt;/sub&gt;&lt;/i&gt;&lt;i style=&quot;border-color: var(--border-color);&quot;&gt;= d·(k-1)&lt;/i&gt;&lt;i&gt;,&amp;nbsp;&lt;/i&gt;for&amp;nbsp;&lt;i style=&quot;border-color: var(--border-color);&quot;&gt;k&amp;nbsp;&lt;/i&gt;≥ 1 and&amp;nbsp;&lt;i&gt;d = 300&lt;/i&gt;&lt;/font&gt;" style="text;html=1;strokeColor=none;fillColor=none;align=left;verticalAlign=middle;whiteSpace=wrap;rounded=0;" parent="1" vertex="1">
          <mxGeometry x="65" y="640" width="290" height="30" as="geometry" />
        </mxCell>
        <mxCell id="LGmv6He7c4hTNf7auWnH-68" value="" style="endArrow=none;dashed=1;html=1;rounded=0;fillColor=#f5f5f5;strokeColor=#D92B09;" parent="1" edge="1">
          <mxGeometry width="50" height="50" relative="1" as="geometry">
            <mxPoint x="210" y="545" as="sourcePoint" />
            <mxPoint x="210" y="365" as="targetPoint" />
          </mxGeometry>
        </mxCell>
        <mxCell id="LGmv6He7c4hTNf7auWnH-69" value="" style="endArrow=none;dashed=1;html=1;rounded=0;fillColor=#f5f5f5;strokeColor=#0E00D9;" parent="1" edge="1">
          <mxGeometry width="50" height="50" relative="1" as="geometry">
            <mxPoint x="150" y="545" as="sourcePoint" />
            <mxPoint x="150" y="365" as="targetPoint" />
          </mxGeometry>
        </mxCell>
        <mxCell id="LGmv6He7c4hTNf7auWnH-71" value="&lt;i&gt;d&lt;sub&gt;2&lt;/sub&gt;&lt;/i&gt;" style="text;html=1;align=center;verticalAlign=middle;resizable=0;points=[];autosize=1;strokeColor=none;fillColor=none;" parent="1" vertex="1">
          <mxGeometry x="135" y="241" width="30" height="20" as="geometry" />
        </mxCell>
        <mxCell id="LGmv6He7c4hTNf7auWnH-73" value="&lt;i&gt;d&lt;sub&gt;3&lt;/sub&gt;&lt;/i&gt;" style="text;html=1;align=center;verticalAlign=middle;resizable=0;points=[];autosize=1;strokeColor=none;fillColor=none;" parent="1" vertex="1">
          <mxGeometry x="240" y="241" width="30" height="20" as="geometry" />
        </mxCell>
        <mxCell id="LGmv6He7c4hTNf7auWnH-74" value="&lt;i&gt;d&lt;sub&gt;2&lt;/sub&gt;&lt;/i&gt;" style="text;html=1;align=center;verticalAlign=middle;resizable=0;points=[];autosize=1;strokeColor=none;fillColor=none;" parent="1" vertex="1">
          <mxGeometry x="110" y="555" width="30" height="20" as="geometry" />
        </mxCell>
        <mxCell id="LGmv6He7c4hTNf7auWnH-75" value="&lt;i&gt;d&lt;sub&gt;4&lt;/sub&gt;&lt;/i&gt;" style="text;html=1;align=center;verticalAlign=middle;resizable=0;points=[];autosize=1;strokeColor=none;fillColor=none;" parent="1" vertex="1">
          <mxGeometry x="190" y="555" width="30" height="20" as="geometry" />
        </mxCell>
        <mxCell id="1r-bIsDnKTiyUsv8Mo2x-3" value="&lt;b&gt;&lt;font style=&quot;font-size: 18px&quot;&gt;(I)&lt;/font&gt;&lt;/b&gt;" style="text;html=1;align=center;verticalAlign=middle;resizable=0;points=[];autosize=1;strokeColor=none;fillColor=none;" parent="1" vertex="1">
          <mxGeometry x="10" width="40" height="40" as="geometry" />
        </mxCell>
        <mxCell id="1r-bIsDnKTiyUsv8Mo2x-4" value="&lt;b&gt;&lt;font style=&quot;font-size: 18px&quot;&gt;(II)&lt;/font&gt;&lt;/b&gt;" style="text;html=1;align=center;verticalAlign=middle;resizable=0;points=[];autosize=1;strokeColor=none;fillColor=none;" parent="1" vertex="1">
          <mxGeometry x="5" y="305" width="50" height="40" as="geometry" />
        </mxCell>
        <mxCell id="1r-bIsDnKTiyUsv8Mo2x-5" value="&lt;b&gt;&lt;font style=&quot;font-size: 18px&quot;&gt;(III)&lt;/font&gt;&lt;/b&gt;" style="text;html=1;align=center;verticalAlign=middle;resizable=0;points=[];autosize=1;strokeColor=none;fillColor=none;" parent="1" vertex="1">
          <mxGeometry x="5" y="620" width="50" height="40" as="geometry" />
        </mxCell>
        <mxCell id="aCSH_HUlUN5xjVTYZ2vd-2" value="&lt;b&gt;&lt;font style=&quot;font-size: 14px&quot;&gt;Three arms with equidistant entry times&lt;/font&gt;&lt;/b&gt;" style="text;html=1;align=center;verticalAlign=middle;resizable=0;points=[];autosize=1;strokeColor=none;fillColor=none;" parent="1" vertex="1">
          <mxGeometry x="55" width="280" height="20" as="geometry" />
        </mxCell>
        <mxCell id="aCSH_HUlUN5xjVTYZ2vd-3" value="&lt;b&gt;&lt;font style=&quot;font-size: 14px&quot;&gt;Four arms with non-equidistant entry times&lt;/font&gt;&lt;/b&gt;" style="text;html=1;align=center;verticalAlign=middle;resizable=0;points=[];autosize=1;strokeColor=none;fillColor=none;" parent="1" vertex="1">
          <mxGeometry x="60" y="303" width="300" height="20" as="geometry" />
        </mxCell>
        <mxCell id="aCSH_HUlUN5xjVTYZ2vd-4" value="&lt;b&gt;&lt;font style=&quot;font-size: 14px&quot;&gt;Multiple arms with equidistant entry times&lt;/font&gt;&lt;/b&gt;" style="text;html=1;align=center;verticalAlign=middle;resizable=0;points=[];autosize=1;strokeColor=none;fillColor=none;" parent="1" vertex="1">
          <mxGeometry x="60" y="620" width="290" height="20" as="geometry" />
        </mxCell>
        <mxCell id="aCSH_HUlUN5xjVTYZ2vd-5" value="&lt;i&gt;d&lt;sub&gt;3&lt;/sub&gt;&lt;/i&gt;" style="text;html=1;align=center;verticalAlign=middle;resizable=0;points=[];autosize=1;strokeColor=none;fillColor=none;" parent="1" vertex="1">
          <mxGeometry x="140" y="555" width="30" height="20" as="geometry" />
        </mxCell>
        <mxCell id="LEHnanmH9IcU5SpTAGnk-1" value="&lt;i style=&quot;&quot;&gt;&lt;b&gt;X-axis:&lt;br&gt;Total sample size in the trial&lt;/b&gt;&lt;/i&gt;" style="text;html=1;align=right;verticalAlign=middle;resizable=0;points=[];autosize=1;strokeColor=none;fillColor=none;" parent="1" vertex="1">
          <mxGeometry x="260" y="221" width="180" height="40" as="geometry" />
        </mxCell>
        <mxCell id="LEHnanmH9IcU5SpTAGnk-2" value="&lt;i style=&quot;&quot;&gt;&lt;b&gt;X-axis:&lt;br&gt;Total sample size in the trial&lt;/b&gt;&lt;/i&gt;" style="text;html=1;align=right;verticalAlign=middle;resizable=0;points=[];autosize=1;strokeColor=none;fillColor=none;" parent="1" vertex="1">
          <mxGeometry x="260" y="545" width="180" height="40" as="geometry" />
        </mxCell>
        <mxCell id="LEHnanmH9IcU5SpTAGnk-3" value="&lt;i style=&quot;&quot;&gt;&lt;b&gt;X-axis:&lt;br&gt;Total sample size in the trial&lt;/b&gt;&lt;/i&gt;" style="text;html=1;align=right;verticalAlign=middle;resizable=0;points=[];autosize=1;strokeColor=none;fillColor=none;" parent="1" vertex="1">
          <mxGeometry x="260" y="880" width="180" height="40" as="geometry" />
        </mxCell>
        <mxCell id="9zq5zZfj6cjtnqbkT52s-2" value="" style="endArrow=classic;html=1;rounded=0;strokeWidth=1.5;" edge="1" parent="1">
          <mxGeometry width="50" height="50" relative="1" as="geometry">
            <mxPoint x="49" y="880" as="sourcePoint" />
            <mxPoint x="409" y="880" as="targetPoint" />
          </mxGeometry>
        </mxCell>
      </root>
    </mxGraphModel>
  </diagram>
</mxfile>
